<svg xmlns="http://www.w3.org/2000/svg" width="128" height="128" viewBox="0 0 128 128">
  <defs>
    <linearGradient id="bg" x1="0" y1="0" x2="1" y2="1">
      <stop offset="0%" stop-color="#c84b1a"/>
      <stop offset="100%" stop-color="#651312"/>
    </linearGradient>
  </defs>
  <rect width="128" height="128" fill="url(#bg)"/>
  <g opacity="0.95">
    <path d="M20 94 C18 72,34 64,34 44 C40 54,46 58,48 76 C56 64,62 46,58 26 C70 38,82 58,78 82 C88 74,94 58,92 38 C106 56,108 84,94 104 C82 120,54 122,34 110 C24 104,20 100,20 94 Z" fill="#ff8d2d"/>
    <path d="M42 100 C40 84,52 76,54 60 C60 68,64 78,64 90 C70 82,76 68,74 54 C84 68,84 92,72 106 C64 114,48 114,42 100 Z" fill="#ffd166"/>
  </g>
</svg>
