<svg xmlns="http://www.w3.org/2000/svg" width="128" height="128" viewBox="0 0 128 128">
  <defs>
    <linearGradient id="bg" x1="0" y1="0" x2="1" y2="1">
      <stop offset="0%" stop-color="#9b653c"/>
      <stop offset="100%" stop-color="#573018"/>
    </linearGradient>
  </defs>
  <rect width="128" height="128" fill="url(#bg)"/>
  <g fill="#c58a5b" opacity="0.28">
    <ellipse cx="20" cy="18" rx="10" ry="6"/>
    <ellipse cx="58" cy="26" rx="14" ry="8"/>
    <ellipse cx="98" cy="18" rx="12" ry="7"/>
    <ellipse cx="34" cy="68" rx="16" ry="9"/>
    <ellipse cx="86" cy="74" rx="18" ry="10"/>
    <ellipse cx="106" cy="108" rx="12" ry="7"/>
  </g>
  <g stroke="#4a2c16" stroke-width="2" opacity="0.55">
    <path d="M8 44 C18 40,28 38,42 42"/>
    <path d="M50 52 C62 46,72 48,86 52"/>
    <path d="M22 98 C38 90,52 90,66 96"/>
    <path d="M74 116 C86 108,100 108,118 112"/>
  </g>
</svg>
